      <svg width="128" height="128" viewBox="0 0 128 128" fill="none" xmlns="http://www.w3.org/2000/svg">
        <path d="M15.8266 60.9072L25.5956 65.3651L35.45 56.7266C35.5993 56.0014 35.6633 55.3188 35.6633 54.5509C35.6633 48.4719 30.7147 43.5234 24.6358 43.5234C20.9884 43.5234 17.6183 45.3151 15.5706 48.3226L13.9282 56.8332L15.8266 60.9072Z" fill="#FED10A" />
        <path d="M5.71623 71.2524C5.56692 71.9776 5.50293 72.7028 5.50293 73.4493C5.50293 79.5496 10.4728 84.4768 16.5517 84.4768C20.2205 84.4768 23.6332 82.6638 25.6809 79.6563L27.302 71.1884L25.1263 67.0291L15.3146 62.5498L5.71623 71.2524Z" fill="#24BBB1" />
        <path d="M5.65247 54.3373L12.35 55.9157L13.8218 48.3223C12.9259 47.6185 11.7741 47.2559 10.6223 47.2559C7.72145 47.2559 5.33252 49.6235 5.33252 52.5456C5.33252 53.1642 5.4605 53.7828 5.65247 54.3373Z" fill="#EF5098" />
        <path d="M5.07648 55.9375C2.09032 56.9187 0 59.7769 0 62.9337C0 66.0052 1.89835 68.7354 4.75654 69.8445L14.1416 61.3553L12.4353 57.6865L5.07648 55.9375Z" fill="#17A8E0" />
        <path d="M27.3877 79.6559C28.3049 80.3598 29.4354 80.7437 30.5658 80.7437C33.4667 80.7437 35.8556 78.3761 35.8556 75.4539C35.8556 74.814 35.749 74.1955 35.5357 73.6196L28.8595 72.0625L27.3877 79.6559Z" fill="#93C83E" />
        <path d="M28.7525 70.3139L36.1113 72.0203C39.1188 71.0391 41.1878 68.1809 41.1878 65.0028C41.1878 61.9526 39.2894 59.2011 36.4312 58.1133L26.8115 66.5599L28.7525 70.3139Z" fill="#0779A1" />
      </svg>